<?xml version="1.0" standalone="no"?>
<!DOCTYPE svg PUBLIC "-//W3C//DTD SVG 20010904//EN"
 "http://www.w3.org/TR/2001/REC-SVG-20010904/DTD/svg10.dtd">
<svg version="1.0" xmlns="http://www.w3.org/2000/svg"
 width="260.000000pt" height="260.000000pt" viewBox="0 0 260.000000 260.000000"
 preserveAspectRatio="xMidYMid meet">
<metadata>
Created by potrace 1.14, written by Peter Selinger 2001-2017
</metadata>
<g transform="translate(0.000000,260.000000) scale(0.100000,-0.100000)"
fill="#000000" stroke="none">
<path d="M1185 2441 c-27 -10 -171 -78 -320 -151 -148 -73 -352 -172 -452
-221 -211 -102 -256 -137 -308 -241 l-34 -69 2 -462 2 -462 32 -66 c50 -101
96 -137 316 -244 106 -51 309 -150 452 -220 319 -156 334 -162 415 -164 87 -3
113 7 428 161 147 71 357 174 467 228 219 107 256 136 312 242 l28 53 0 470 0
470 -27 57 c-49 106 -90 138 -307 245 -611 299 -769 375 -805 383 -62 14 -146
10 -201 -9z m340 -455 c125 -36 291 -121 416 -214 94 -71 294 -258 359 -337
72 -87 96 -122 96 -137 -2 -52 -277 -336 -449 -464 -146 -109 -334 -204 -454
-229 -15 -3 -41 -9 -58 -13 -16 -3 -84 -6 -150 -5 -98 1 -136 6 -210 27 -128
38 -294 124 -421 219 -163 121 -442 410 -450 465 -4 23 92 138 226 272 241
241 460 375 705 430 114 25 270 20 390 -14z"/>
<path d="M1138 1866 c-347 -101 -526 -508 -363 -829 81 -159 204 -259 376
-307 102 -28 247 -22 341 13 414 158 526 678 211 984 -148 143 -366 196 -565
139z m289 -92 c63 -19 63 -22 -1 -23 -66 0 -105 -22 -113 -63 -3 -17 -15 -33
-27 -38 -36 -13 -57 -46 -58 -87 -1 -58 1 -66 23 -93 18 -21 31 -25 102 -30
l81 -5 9 -37 c10 -42 56 -87 90 -89 12 -1 69 -3 127 -4 58 -1 111 -3 118 -4
13 -1 17 -59 4 -77 -4 -6 -41 -12 -84 -12 -49 -1 -89 -7 -108 -17 -30 -15 -73
-72 -65 -85 2 -3 -10 -12 -26 -19 -56 -25 -76 -108 -43 -177 9 -19 26 -40 37
-46 20 -10 20 -11 -6 -24 -60 -32 -183 -46 -271 -30 -99 17 -115 31 -37 32 60
1 100 24 108 64 3 17 11 30 17 30 7 0 24 13 39 28 22 22 27 38 27 76 0 85 -27
108 -130 112 -36 1 -68 2 -72 3 -3 1 -10 16 -14 33 -18 85 -53 101 -219 101
l-125 0 0 36 c0 57 7 61 99 60 96 -1 122 12 156 74 11 21 28 40 38 43 28 9 57
64 57 107 0 43 -12 70 -46 108 l-24 25 62 21 c75 25 204 28 275 7z"/>
</g>
</svg>
