<svg xmlns="http://www.w3.org/2000/svg" xmlns:xlink="http://www.w3.org/1999/xlink" style="display:none"><symbol id="arrow-left"><path d="M10.83 19a1 1 0 01-.71-.3l-5.83-6a1 1 0 01-.19-.26v-.07A1 1 0 014 12a1 1 0 01.07-.34v-.07a1.15 1.15 0 01.19-.26l5.83-6a1 1 0 111.43 1.4L7.37 11H19a1 1 0 010 2H7.37l4.18 4.3a1 1 0 01-.72 1.7z"/></symbol><symbol id="arrow-right"><path d="M13.17 19a1 1 0 01-.72-1.7l4.18-4.3H5a1 1 0 010-2h11.63l-4.18-4.3a1 1 0 111.43-1.4l5.83 6a.83.83 0 01.19.27 1.07 1.07 0 010 .76.83.83 0 01-.19.27l-5.83 6a1 1 0 01-.71.4z"/></symbol><symbol id="burger"><path d="M13.78 20.12H2.49a1 1 0 010-2h11.29a1 1 0 110 2zM21.51 13h-19a1 1 0 010-2h19a1 1 0 010 2zm0-7.13H10.22a1 1 0 010-2h11.29a1 1 0 110 2z"/></symbol><symbol id="chevron-down"><path d="M12 15.52a1 1 0 01-.73-.31l-5-5a1 1 0 011.5-1.42L12 13l4.23-4.23a1 1 0 011.47 1.46l-5 5a1 1 0 01-.7.29z"/></symbol><symbol id="chevron-left"><path d="M14.48 18a1 1 0 01-.73-.3l-5-5a1 1 0 010-1.46l5-5a1 1 0 011.46 1.47L11 12l4.23 4.23a1 1 0 010 1.47 1 1 0 01-.75.3z"/></symbol><symbol id="chevron-right"><path d="M9.6 17.8a1 1 0 01-.71-.29 1 1 0 010-1.42L13 12 8.89 7.91a1 1 0 011.42-1.42l4.8 4.8a1 1 0 010 1.42l-4.8 4.8a1 1 0 01-.71.29z"/></symbol><symbol id="chevron-up"><path d="M17 15.51a1.06 1.06 0 01-.74-.3L12 11l-4.23 4.21a1.05 1.05 0 01-1.47 0 1 1 0 010-1.46l5-5a1.06 1.06 0 011.46 0l5 5a1 1 0 010 1.46 1.06 1.06 0 01-.76.3z"/></symbol><symbol id="close"><path d="M18.43 19.5a1.06 1.06 0 01-.76-.31L12 13.52l-5.67 5.67a1.07 1.07 0 01-1.52-1.52L10.48 12 4.81 6.33a1.07 1.07 0 011.52-1.52L12 10.48l5.67-5.67a1.07 1.07 0 011.52 1.52L13.52 12l5.67 5.67a1.09 1.09 0 010 1.52 1.07 1.07 0 01-.76.31z"/></symbol><symbol id="email"><path d="M19.13 20.12H4.87a3.37 3.37 0 01-3.37-3.37v-9.5a3.37 3.37 0 013.37-3.37h14.26a3.37 3.37 0 013.37 3.37v9.5a3.37 3.37 0 01-3.37 3.37zM3.48 7.25v9.5a1.39 1.39 0 001.39 1.39h14.26a1.39 1.39 0 001.39-1.39v-9.5a1.21 1.21 0 01-.23.22l-7 4.88a2.2 2.2 0 01-2.48 0l-7-4.88a1.21 1.21 0 01-.33-.22zm1.39-1.39l7 4.86a.22.22 0 00.22 0l7-4.86z"/></symbol><symbol id="globe"><path d="M12 1a11 11 0 1011 11A11 11 0 0012 1zM3.06 13H7a18.4 18.4 0 001.66 7.36A9 9 0 013.06 13zm4-2h-4a9 9 0 015.62-7.36A18.4 18.4 0 007 11zm5 10c-1.15 0-2.78-3.08-3-8h6c-.28 4.92-1.91 8-3.06 8zM9 11c.2-4.92 1.83-8 3-8s2.78 3.08 3 8zm6.3 9.36A18.4 18.4 0 0017 13h4a9 9 0 01-5.68 7.36zM17 11a18.4 18.4 0 00-1.66-7.36 9 9 0 015.6 7.36z"/></symbol><symbol id="index-ukraine"><path d="M11.41 17.49V13.3H7.55l5.04-6.79v4.19h3.86l-5.04 6.79z"/><path d="M12 4.41C5.13 4.41 1 12 1 12s4.13 7.59 11 7.59S23 12 23 12s-4.13-7.59-11-7.59zm0 14.42A6.87 6.87 0 015.09 12 6.91 6.91 0 1112 18.83z"/></symbol><symbol id="phone"><path d="M17.57 22.1h-.28a11 11 0 01-4-1.18A21.52 21.52 0 016.1 15.3a19.85 19.85 0 01-3.5-5.86A7.61 7.61 0 012 6.11 3.17 3.17 0 013 4.1l1.54-1.58a1.9 1.9 0 012.81 0c.29.26.57.55.86.85l1.7 1.7a2 2 0 01.66 1.44 2 2 0 01-.66 1.43l-.51.52a1.73 1.73 0 01-.24.22.86.86 0 00-.16.13A9.3 9.3 0 0010.35 11a16 16 0 003.87 3.51 4.59 4.59 0 00.48.26l.54.29.88-.93a1.9 1.9 0 012.84 0l2.53 2.53a2.3 2.3 0 01.2 2.61 1.1 1.1 0 01-.2.28c-.44.43-1.21 1.2-1.4 1.42a3.26 3.26 0 01-2.52 1.13zM6 4L4.39 5.53a1.13 1.13 0 00-.39.75 5.56 5.56 0 00.5 2.46A17.94 17.94 0 007.67 14a19.56 19.56 0 006.51 5.08 9.07 9.07 0 003.24 1h.15a1.27 1.27 0 001-.41c.22-.27 1-1 1.34-1.38A.74.74 0 0020 18l-2.47-2.4-.89.88a2 2 0 01-1.42.62 2 2 0 01-.91-.23l-.12-.07c-.11-.07-.23-.12-.36-.19a5.08 5.08 0 01-.69-.38 17.86 17.86 0 01-4.37-4 11.27 11.27 0 01-1.65-2.7v-.1a2 2 0 01.43-2.03l.1-.09.27-.24.15-.16.41-.4-1.72-1.73C6.49 4.5 6.23 4.24 6 4zm14.78 14.86zm0 0zm-.72-.73z"/></symbol><symbol id="quote"><path d="M21.29 19h-2.45a1.74 1.74 0 01-1.71-1.75V12.6a2.13 2.13 0 00-2.23-2h-1.22A1.74 1.74 0 0112 8.85v-2.1A1.74 1.74 0 0113.68 5h1.22a7.87 7.87 0 018.1 7.6v4.65A1.74 1.74 0 0121.29 19zm-2.16-2H21v-4.4A5.87 5.87 0 0014.9 7H14v1.6h.93a4.12 4.12 0 014.23 4zm-8.81 2H7.88a1.74 1.74 0 01-1.72-1.75V12.6a2.13 2.13 0 00-2.22-2H2.71A1.74 1.74 0 011 8.85v-2.1A1.74 1.74 0 012.71 5h1.23A7.87 7.87 0 0112 12.6v4.65A1.74 1.74 0 0110.32 19zm-2.16-2H10v-4.4A5.86 5.86 0 003.94 7H3v1.6h.94a4.11 4.11 0 014.22 4z" fill="#090909"/></symbol><symbol id="search"><path d="M20.4 21.4a1 1 0 01-.7-.28l-2.81-2.72a8.85 8.85 0 111.43-1.4l2.78 2.69a1 1 0 01-.7 1.72zm-9-16.8a6.84 6.84 0 106.84 6.84 6.85 6.85 0 00-6.8-6.84z"/></symbol><symbol id="upload"><path d="M12 22a1 1 0 01-1-1v-9.62l-3.11 3a1 1 0 01-1.38-1.44l4.79-4.62a1.26 1.26 0 01.28-.19A1.23 1.23 0 0112 8a1.07 1.07 0 01.32.07h.05a1.07 1.07 0 01.28.19l4.8 4.59a1 1 0 01-1.38 1.44l-3.11-3V21a1 1 0 01-.96 1zM4.22 4.58a1 1 0 01-.71-.29 1 1 0 010-1.42A3 3 0 015.7 2h12.6a3 3 0 012.19.91 1 1 0 11-1.42 1.41A1.06 1.06 0 0018.3 4H5.7a1.06 1.06 0 00-.77.32 1 1 0 01-.71.26z"/></symbol></svg>