<svg width="792" height="689" viewBox="0 0 792 689" fill="none" xmlns="http://www.w3.org/2000/svg">
<rect width="792" height="689" fill="white"/>
<text fill="#111111" xml:space="preserve" style="white-space: pre" font-family="Golos Text" font-size="12" font-weight="bold" letter-spacing="0px"><tspan x="64.2852" y="38.06">Score</tspan></text>
<text fill="#111111" xml:space="preserve" style="white-space: pre" font-family="Golos Text" font-size="12" font-weight="bold" letter-spacing="0px"><tspan x="131.062" y="38.06">Rating</tspan></text>
<text fill="#111111" xml:space="preserve" style="white-space: pre" font-family="Golos Text" font-size="12" font-weight="bold" letter-spacing="0px"><tspan x="202" y="38.06">Characteristic</tspan></text>
<g clip-path="url(#clip0_1488_11122)">
<g opacity="0.4">
<mask id="mask0_1488_11122" style="mask-type:alpha" maskUnits="userSpaceOnUse" x="0" y="51" width="114" height="42">
<rect width="114" height="42" transform="matrix(-1 0 0 1 114 51)" fill="url(#paint0_linear_1488_11122)"/>
</mask>
<g mask="url(#mask0_1488_11122)">
<path d="M114 51H0V93H114V51Z" fill="#19AA52"/>
</g>
</g>
<text fill="#111111" xml:space="preserve" style="white-space: pre" font-family="Golos Text" font-size="16" letter-spacing="0px"><tspan x="37.3438" y="78.08">95 - 100</tspan></text>
</g>
<rect x="122" y="51" width="56" height="42" rx="2" fill="#19AA52"/>
<text fill="white" xml:space="preserve" style="white-space: pre" font-family="Golos Text" font-size="16" font-weight="bold" letter-spacing="0px"><tspan x="139.68" y="78.08">A+</tspan></text>
<g opacity="0.25">
<mask id="mask1_1488_11122" style="mask-type:alpha" maskUnits="userSpaceOnUse" x="186" y="51" width="606" height="42">
<rect x="186" y="51" width="606" height="42" fill="url(#paint1_linear_1488_11122)"/>
</mask>
<g mask="url(#mask1_1488_11122)">
<path d="M792 51H186V93H792V51Z" fill="#19AA52"/>
</g>
</g>
<text fill="#111111" xml:space="preserve" style="white-space: pre" font-family="Golos Text" font-size="16" letter-spacing="0px"><tspan x="202" y="78.08">Absolute transparency</tspan></text>
<g clip-path="url(#clip1_1488_11122)">
<g opacity="0.4">
<mask id="mask2_1488_11122" style="mask-type:alpha" maskUnits="userSpaceOnUse" x="0" y="101" width="114" height="42">
<rect width="114" height="42" transform="matrix(-1 0 0 1 114 101)" fill="url(#paint2_linear_1488_11122)"/>
</mask>
<g mask="url(#mask2_1488_11122)">
<path d="M114 101H0V143H114V101Z" fill="#7DC374"/>
</g>
</g>
<text fill="#111111" xml:space="preserve" style="white-space: pre" font-family="Golos Text" font-size="16" letter-spacing="0px"><tspan x="44.8594" y="128.08">90 - 94</tspan></text>
</g>
<rect x="122" y="101" width="56" height="42" rx="2" fill="#7DC374"/>
<text fill="white" xml:space="preserve" style="white-space: pre" font-family="Golos Text" font-size="16" font-weight="bold" letter-spacing="0px"><tspan x="144.32" y="128.08">A</tspan></text>
<g opacity="0.25">
<mask id="mask3_1488_11122" style="mask-type:alpha" maskUnits="userSpaceOnUse" x="186" y="101" width="606" height="42">
<rect x="186" y="101" width="606" height="42" fill="url(#paint3_linear_1488_11122)"/>
</mask>
<g mask="url(#mask3_1488_11122)">
<path d="M792 101H186V143H792V101Z" fill="#7DC374"/>
</g>
</g>
<text fill="#111111" xml:space="preserve" style="white-space: pre" font-family="Golos Text" font-size="16" letter-spacing="0px"><tspan x="202" y="128.08">Absolute transparency</tspan></text>
<g clip-path="url(#clip2_1488_11122)">
<g opacity="0.4">
<mask id="mask4_1488_11122" style="mask-type:alpha" maskUnits="userSpaceOnUse" x="0" y="147" width="114" height="42">
<rect width="114" height="42" transform="matrix(-1 0 0 1 114 147)" fill="url(#paint4_linear_1488_11122)"/>
</mask>
<g mask="url(#mask4_1488_11122)">
<path d="M114 147H0V189H114V147Z" fill="#ABD59E"/>
</g>
</g>
<text fill="#111111" xml:space="preserve" style="white-space: pre" font-family="Golos Text" font-size="16" letter-spacing="0px"><tspan x="45.4219" y="174.08">85 - 89</tspan></text>
</g>
<rect width="56" height="42" transform="translate(122 147)" fill="#ABD59E"/>
<text fill="white" xml:space="preserve" style="white-space: pre" font-family="Golos Text" font-size="16" font-weight="bold" letter-spacing="0px"><tspan x="141.281" y="174.08">A-</tspan></text>
<g opacity="0.25">
<mask id="mask5_1488_11122" style="mask-type:alpha" maskUnits="userSpaceOnUse" x="186" y="147" width="606" height="42">
<rect x="186" y="147" width="606" height="42" fill="url(#paint5_linear_1488_11122)"/>
</mask>
<g mask="url(#mask5_1488_11122)">
<path d="M792 147H186V189H792V147Z" fill="#ABD59E"/>
</g>
</g>
<text fill="#111111" xml:space="preserve" style="white-space: pre" font-family="Golos Text" font-size="16" letter-spacing="0px"><tspan x="202" y="174.08">Absolute transparency</tspan></text>
<g clip-path="url(#clip3_1488_11122)">
<g opacity="0.4">
<mask id="mask6_1488_11122" style="mask-type:alpha" maskUnits="userSpaceOnUse" x="0" y="197" width="114" height="42">
<rect width="114" height="42" transform="matrix(-1 0 0 1 114 197)" fill="url(#paint6_linear_1488_11122)"/>
</mask>
<g mask="url(#mask6_1488_11122)">
<path d="M114 197H0V239H114V197Z" fill="#1791D2"/>
</g>
</g>
<text fill="#111111" xml:space="preserve" style="white-space: pre" font-family="Golos Text" font-size="16" letter-spacing="0px"><tspan x="44.7031" y="224.08">80 - 84</tspan></text>
</g>
<rect width="56" height="42" transform="translate(122 197)" fill="#1791D2"/>
<text fill="white" xml:space="preserve" style="white-space: pre" font-family="Golos Text" font-size="16" font-weight="bold" letter-spacing="0px"><tspan x="139.719" y="224.08">B+</tspan></text>
<g opacity="0.25">
<mask id="mask7_1488_11122" style="mask-type:alpha" maskUnits="userSpaceOnUse" x="186" y="197" width="606" height="42">
<rect x="186" y="197" width="606" height="42" fill="url(#paint7_linear_1488_11122)"/>
</mask>
<g mask="url(#mask7_1488_11122)">
<path d="M792 197H186V239H792V197Z" fill="#1791D2"/>
</g>
</g>
<g clip-path="url(#clip4_1488_11122)">
<g opacity="0.4">
<mask id="mask8_1488_11122" style="mask-type:alpha" maskUnits="userSpaceOnUse" x="0" y="243" width="114" height="42">
<rect width="114" height="42" transform="matrix(-1 0 0 1 114 243)" fill="url(#paint8_linear_1488_11122)"/>
</mask>
<g mask="url(#mask8_1488_11122)">
<path d="M114 243H0V285H114V243Z" fill="#44B5E5"/>
</g>
</g>
<text fill="#111111" xml:space="preserve" style="white-space: pre" font-family="Golos Text" font-size="16" letter-spacing="0px"><tspan x="47.9844" y="270.08">75 - 79</tspan></text>
</g>
<rect width="56" height="42" transform="translate(122 243)" fill="#44B5E5"/>
<text fill="white" xml:space="preserve" style="white-space: pre" font-family="Golos Text" font-size="16" font-weight="bold" letter-spacing="0px"><tspan x="144.359" y="270.08">B</tspan></text>
<g opacity="0.4">
<mask id="mask9_1488_11122" style="mask-type:alpha" maskUnits="userSpaceOnUse" x="186" y="243" width="606" height="42">
<rect x="186" y="243" width="606" height="42" fill="url(#paint9_linear_1488_11122)"/>
</mask>
<g mask="url(#mask9_1488_11122)">
<path d="M792 243H186V285H792V243Z" fill="#44B5E5"/>
</g>
</g>
<text fill="#111111" xml:space="preserve" style="white-space: pre" font-family="Golos Text" font-size="16" letter-spacing="0px"><tspan x="202" y="270.08">Good transparency</tspan></text>
<g clip-path="url(#clip5_1488_11122)">
<g opacity="0.4">
<mask id="mask10_1488_11122" style="mask-type:alpha" maskUnits="userSpaceOnUse" x="0" y="289" width="114" height="42">
<rect width="114" height="42" transform="matrix(-1 0 0 1 114 289)" fill="url(#paint10_linear_1488_11122)"/>
</mask>
<g mask="url(#mask10_1488_11122)">
<path d="M114 289H0V331H114V289Z" fill="#93CEEF"/>
</g>
</g>
<text fill="#111111" xml:space="preserve" style="white-space: pre" font-family="Golos Text" font-size="16" letter-spacing="0px"><tspan x="47.2656" y="316.08">70 - 74</tspan></text>
</g>
<rect width="56" height="42" transform="translate(122 289)" fill="#93CEEF"/>
<text fill="white" xml:space="preserve" style="white-space: pre" font-family="Golos Text" font-size="16" font-weight="bold" letter-spacing="0px"><tspan x="141.32" y="316.08">B-</tspan></text>
<g opacity="0.25">
<mask id="mask11_1488_11122" style="mask-type:alpha" maskUnits="userSpaceOnUse" x="186" y="289" width="606" height="42">
<rect x="186" y="289" width="606" height="42" fill="url(#paint11_linear_1488_11122)"/>
</mask>
<g mask="url(#mask11_1488_11122)">
<path d="M792 289H186V331H792V289Z" fill="#93CEEF"/>
</g>
</g>
<g clip-path="url(#clip6_1488_11122)">
<g opacity="0.4">
<mask id="mask12_1488_11122" style="mask-type:alpha" maskUnits="userSpaceOnUse" x="0" y="339" width="114" height="42">
<rect width="114" height="42" transform="matrix(-1 0 0 1 114 339)" fill="url(#paint12_linear_1488_11122)"/>
</mask>
<g mask="url(#mask12_1488_11122)">
<path d="M114 339H0V381H114V339Z" fill="#F7E931"/>
</g>
</g>
<text fill="#111111" xml:space="preserve" style="white-space: pre" font-family="Golos Text" font-size="16" letter-spacing="0px"><tspan x="45.5781" y="366.08">65 - 69</tspan></text>
</g>
<rect width="56" height="42" transform="translate(122 339)" fill="#F7E931"/>
<text fill="#111111" xml:space="preserve" style="white-space: pre" font-family="Golos Text" font-size="16" font-weight="bold" letter-spacing="0px"><tspan x="139.68" y="366.08">C+</tspan></text>
<g opacity="0.25">
<mask id="mask13_1488_11122" style="mask-type:alpha" maskUnits="userSpaceOnUse" x="186" y="339" width="606" height="42">
<rect x="186" y="339" width="606" height="42" fill="url(#paint13_linear_1488_11122)"/>
</mask>
<g mask="url(#mask13_1488_11122)">
<path d="M792 339H186V381H792V339Z" fill="#F7E931"/>
</g>
</g>
<g clip-path="url(#clip7_1488_11122)">
<g opacity="0.4">
<mask id="mask14_1488_11122" style="mask-type:alpha" maskUnits="userSpaceOnUse" x="0" y="385" width="114" height="42">
<rect width="114" height="42" transform="matrix(-1 0 0 1 114 385)" fill="url(#paint14_linear_1488_11122)"/>
</mask>
<g mask="url(#mask14_1488_11122)">
<path d="M114 385H0V427H114V385Z" fill="#F4EB60"/>
</g>
</g>
<text fill="#111111" xml:space="preserve" style="white-space: pre" font-family="Golos Text" font-size="16" letter-spacing="0px"><tspan x="44.8594" y="412.08">60 - 64</tspan></text>
</g>
<rect width="56" height="42" transform="translate(122 385)" fill="#F4EB60"/>
<text fill="#111111" xml:space="preserve" style="white-space: pre" font-family="Golos Text" font-size="16" font-weight="bold" letter-spacing="0px"><tspan x="144.32" y="412.08">C</tspan></text>
<g opacity="0.4">
<mask id="mask15_1488_11122" style="mask-type:alpha" maskUnits="userSpaceOnUse" x="186" y="385" width="606" height="42">
<rect x="186" y="385" width="606" height="42" fill="url(#paint15_linear_1488_11122)"/>
</mask>
<g mask="url(#mask15_1488_11122)">
<path d="M792 385H186V427H792V385Z" fill="#F4EB60"/>
</g>
</g>
<text fill="#111111" xml:space="preserve" style="white-space: pre" font-family="Golos Text" font-size="16" letter-spacing="0px"><tspan x="202" y="412.08">Medium transparency</tspan></text>
<g clip-path="url(#clip8_1488_11122)">
<g opacity="0.4">
<mask id="mask16_1488_11122" style="mask-type:alpha" maskUnits="userSpaceOnUse" x="0" y="431" width="114" height="42">
<rect width="114" height="42" transform="matrix(-1 0 0 1 114 431)" fill="url(#paint16_linear_1488_11122)"/>
</mask>
<g mask="url(#mask16_1488_11122)">
<path d="M114 431H0V473H114V431Z" fill="#F8F5B2"/>
</g>
</g>
<text fill="#111111" xml:space="preserve" style="white-space: pre" font-family="Golos Text" font-size="16" letter-spacing="0px"><tspan x="46.3906" y="458.08">55 - 59</tspan></text>
</g>
<rect width="56" height="42" transform="translate(122 431)" fill="#F8F5B2"/>
<text fill="#111111" xml:space="preserve" style="white-space: pre" font-family="Golos Text" font-size="16" font-weight="bold" letter-spacing="0px"><tspan x="141.281" y="458.08">C-</tspan></text>
<g opacity="0.25">
<mask id="mask17_1488_11122" style="mask-type:alpha" maskUnits="userSpaceOnUse" x="186" y="431" width="606" height="42">
<rect x="186" y="431" width="606" height="42" fill="url(#paint17_linear_1488_11122)"/>
</mask>
<g mask="url(#mask17_1488_11122)">
<path d="M792 431H186V473H792V431Z" fill="#F8F5B2"/>
</g>
</g>
<g clip-path="url(#clip9_1488_11122)">
<g opacity="0.4">
<mask id="mask18_1488_11122" style="mask-type:alpha" maskUnits="userSpaceOnUse" x="0" y="481" width="114" height="42">
<rect width="114" height="42" transform="matrix(-1 0 0 1 114 481)" fill="url(#paint18_linear_1488_11122)"/>
</mask>
<g mask="url(#mask18_1488_11122)">
<path d="M114 481H0V523H114V481Z" fill="#F6BA3E"/>
</g>
</g>
<text fill="#111111" xml:space="preserve" style="white-space: pre" font-family="Golos Text" font-size="16" letter-spacing="0px"><tspan x="45.6719" y="508.08">50 - 54</tspan></text>
</g>
<rect width="56" height="42" transform="translate(122 481)" fill="#F6BA3E"/>
<text fill="white" xml:space="preserve" style="white-space: pre" font-family="Golos Text" font-size="16" font-weight="bold" letter-spacing="0px"><tspan x="139.719" y="508.08">B+</tspan></text>
<g opacity="0.25">
<mask id="mask19_1488_11122" style="mask-type:alpha" maskUnits="userSpaceOnUse" x="186" y="481" width="606" height="42">
<rect x="186" y="481" width="606" height="42" fill="url(#paint19_linear_1488_11122)"/>
</mask>
<g mask="url(#mask19_1488_11122)">
<path d="M792 481H186V523H792V481Z" fill="#F6BA3E"/>
</g>
</g>
<g clip-path="url(#clip10_1488_11122)">
<g opacity="0.4">
<mask id="mask20_1488_11122" style="mask-type:alpha" maskUnits="userSpaceOnUse" x="0" y="527" width="114" height="42">
<rect width="114" height="42" transform="matrix(-1 0 0 1 114 527)" fill="url(#paint20_linear_1488_11122)"/>
</mask>
<g mask="url(#mask20_1488_11122)">
<path d="M114 527H0V569H114V527Z" fill="#EE7832"/>
</g>
</g>
<text fill="#111111" xml:space="preserve" style="white-space: pre" font-family="Golos Text" font-size="16" letter-spacing="0px"><tspan x="45.4219" y="554.08">45 - 49</tspan></text>
</g>
<rect width="56" height="42" transform="translate(122 527)" fill="#EE7832"/>
<text fill="white" xml:space="preserve" style="white-space: pre" font-family="Golos Text" font-size="16" font-weight="bold" letter-spacing="0px"><tspan x="144.359" y="554.08">B</tspan></text>
<g opacity="0.4">
<mask id="mask21_1488_11122" style="mask-type:alpha" maskUnits="userSpaceOnUse" x="186" y="527" width="606" height="42">
<rect x="186" y="527" width="606" height="42" fill="url(#paint21_linear_1488_11122)"/>
</mask>
<g mask="url(#mask21_1488_11122)">
<path d="M792 527H186V569H792V527Z" fill="#EE7832"/>
</g>
</g>
<text fill="#111111" xml:space="preserve" style="white-space: pre" font-family="Golos Text" font-size="16" letter-spacing="0px"><tspan x="202" y="554.08">Insufficient transparency</tspan></text>
<g clip-path="url(#clip11_1488_11122)">
<g opacity="0.4">
<mask id="mask22_1488_11122" style="mask-type:alpha" maskUnits="userSpaceOnUse" x="0" y="573" width="114" height="42">
<rect width="114" height="42" transform="matrix(-1 0 0 1 114 573)" fill="url(#paint22_linear_1488_11122)"/>
</mask>
<g mask="url(#mask22_1488_11122)">
<path d="M114 573H0V615H114V573Z" fill="#EB3F3F"/>
</g>
</g>
<text fill="#111111" xml:space="preserve" style="white-space: pre" font-family="Golos Text" font-size="16" letter-spacing="0px"><tspan x="44.7031" y="600.08">40 - 44</tspan></text>
</g>
<rect width="56" height="42" transform="translate(122 573)" fill="#EB3F3F"/>
<text fill="white" xml:space="preserve" style="white-space: pre" font-family="Golos Text" font-size="16" font-weight="bold" letter-spacing="0px"><tspan x="141.32" y="600.08">B-</tspan></text>
<g opacity="0.25">
<mask id="mask23_1488_11122" style="mask-type:alpha" maskUnits="userSpaceOnUse" x="186" y="573" width="606" height="42">
<rect x="186" y="573" width="606" height="42" fill="url(#paint23_linear_1488_11122)"/>
</mask>
<g mask="url(#mask23_1488_11122)">
<path d="M792 573H186V615H792V573Z" fill="#EB3F3F"/>
</g>
</g>
<g clip-path="url(#clip12_1488_11122)">
<g opacity="0.4">
<mask id="mask24_1488_11122" style="mask-type:alpha" maskUnits="userSpaceOnUse" x="0" y="623" width="114" height="42">
<rect width="114" height="42" transform="matrix(-1 0 0 1 114 623)" fill="url(#paint24_linear_1488_11122)"/>
</mask>
<g mask="url(#mask24_1488_11122)">
<path d="M114 623H0V665H114V623Z" fill="#3F2F39"/>
</g>
</g>
<text fill="#111111" xml:space="preserve" style="white-space: pre" font-family="Golos Text" font-size="16" letter-spacing="0px"><tspan x="54.9531" y="650.08">0 - 39</tspan></text>
</g>
<rect width="56" height="42" transform="translate(122 623)" fill="#3F2F39"/>
<text fill="white" xml:space="preserve" style="white-space: pre" font-family="Golos Text" font-size="16" font-weight="bold" letter-spacing="0px"><tspan x="144.359" y="650.08">B</tspan></text>
<g opacity="0.4">
<mask id="mask25_1488_11122" style="mask-type:alpha" maskUnits="userSpaceOnUse" x="186" y="623" width="606" height="42">
<rect x="186" y="623" width="606" height="42" fill="url(#paint25_linear_1488_11122)"/>
</mask>
<g mask="url(#mask25_1488_11122)">
<path d="M792 623H186V665H792V623Z" fill="#3F2F39"/>
</g>
</g>
<text fill="#111111" xml:space="preserve" style="white-space: pre" font-family="Golos Text" font-size="16" letter-spacing="0px"><tspan x="202" y="650.08">Unacceptable transparency</tspan></text>
<defs>
<linearGradient id="paint0_linear_1488_11122" x1="-2.18977e-07" y1="21" x2="114" y2="21" gradientUnits="userSpaceOnUse">
<stop stop-color="#19AA52"/>
<stop offset="1" stop-color="#19AA52" stop-opacity="0"/>
</linearGradient>
<linearGradient id="paint1_linear_1488_11122" x1="186" y1="72" x2="792" y2="72" gradientUnits="userSpaceOnUse">
<stop stop-color="#19AA52"/>
<stop offset="1" stop-color="#19AA52" stop-opacity="0"/>
</linearGradient>
<linearGradient id="paint2_linear_1488_11122" x1="-2.18977e-07" y1="21" x2="114" y2="21" gradientUnits="userSpaceOnUse">
<stop stop-color="#19AA52"/>
<stop offset="1" stop-color="#19AA52" stop-opacity="0"/>
</linearGradient>
<linearGradient id="paint3_linear_1488_11122" x1="186" y1="122" x2="792" y2="122" gradientUnits="userSpaceOnUse">
<stop stop-color="#19AA52"/>
<stop offset="1" stop-color="#19AA52" stop-opacity="0"/>
</linearGradient>
<linearGradient id="paint4_linear_1488_11122" x1="-2.18977e-07" y1="21" x2="114" y2="21" gradientUnits="userSpaceOnUse">
<stop stop-color="#19AA52"/>
<stop offset="1" stop-color="#19AA52" stop-opacity="0"/>
</linearGradient>
<linearGradient id="paint5_linear_1488_11122" x1="186" y1="168" x2="792" y2="168" gradientUnits="userSpaceOnUse">
<stop stop-color="#19AA52"/>
<stop offset="1" stop-color="#19AA52" stop-opacity="0"/>
</linearGradient>
<linearGradient id="paint6_linear_1488_11122" x1="-2.18977e-07" y1="21" x2="114" y2="21" gradientUnits="userSpaceOnUse">
<stop stop-color="#19AA52"/>
<stop offset="1" stop-color="#19AA52" stop-opacity="0"/>
</linearGradient>
<linearGradient id="paint7_linear_1488_11122" x1="186" y1="218" x2="792" y2="218" gradientUnits="userSpaceOnUse">
<stop stop-color="#19AA52"/>
<stop offset="1" stop-color="#19AA52" stop-opacity="0"/>
</linearGradient>
<linearGradient id="paint8_linear_1488_11122" x1="-2.18977e-07" y1="21" x2="114" y2="21" gradientUnits="userSpaceOnUse">
<stop stop-color="#19AA52"/>
<stop offset="1" stop-color="#19AA52" stop-opacity="0"/>
</linearGradient>
<linearGradient id="paint9_linear_1488_11122" x1="186" y1="264" x2="792" y2="264" gradientUnits="userSpaceOnUse">
<stop stop-color="#19AA52"/>
<stop offset="1" stop-color="#19AA52" stop-opacity="0"/>
</linearGradient>
<linearGradient id="paint10_linear_1488_11122" x1="-2.18977e-07" y1="21" x2="114" y2="21" gradientUnits="userSpaceOnUse">
<stop stop-color="#19AA52"/>
<stop offset="1" stop-color="#19AA52" stop-opacity="0"/>
</linearGradient>
<linearGradient id="paint11_linear_1488_11122" x1="186" y1="310" x2="792" y2="310" gradientUnits="userSpaceOnUse">
<stop stop-color="#19AA52"/>
<stop offset="1" stop-color="#19AA52" stop-opacity="0"/>
</linearGradient>
<linearGradient id="paint12_linear_1488_11122" x1="-2.18977e-07" y1="21" x2="114" y2="21" gradientUnits="userSpaceOnUse">
<stop stop-color="#19AA52"/>
<stop offset="1" stop-color="#19AA52" stop-opacity="0"/>
</linearGradient>
<linearGradient id="paint13_linear_1488_11122" x1="186" y1="360" x2="792" y2="360" gradientUnits="userSpaceOnUse">
<stop stop-color="#19AA52"/>
<stop offset="1" stop-color="#19AA52" stop-opacity="0"/>
</linearGradient>
<linearGradient id="paint14_linear_1488_11122" x1="-2.18977e-07" y1="21" x2="114" y2="21" gradientUnits="userSpaceOnUse">
<stop stop-color="#19AA52"/>
<stop offset="1" stop-color="#19AA52" stop-opacity="0"/>
</linearGradient>
<linearGradient id="paint15_linear_1488_11122" x1="186" y1="406" x2="792" y2="406" gradientUnits="userSpaceOnUse">
<stop stop-color="#19AA52"/>
<stop offset="1" stop-color="#19AA52" stop-opacity="0"/>
</linearGradient>
<linearGradient id="paint16_linear_1488_11122" x1="-2.18977e-07" y1="21" x2="114" y2="21" gradientUnits="userSpaceOnUse">
<stop stop-color="#19AA52"/>
<stop offset="1" stop-color="#19AA52" stop-opacity="0"/>
</linearGradient>
<linearGradient id="paint17_linear_1488_11122" x1="186" y1="452" x2="792" y2="452" gradientUnits="userSpaceOnUse">
<stop stop-color="#19AA52"/>
<stop offset="1" stop-color="#19AA52" stop-opacity="0"/>
</linearGradient>
<linearGradient id="paint18_linear_1488_11122" x1="-2.18977e-07" y1="21" x2="114" y2="21" gradientUnits="userSpaceOnUse">
<stop stop-color="#19AA52"/>
<stop offset="1" stop-color="#19AA52" stop-opacity="0"/>
</linearGradient>
<linearGradient id="paint19_linear_1488_11122" x1="186" y1="502" x2="792" y2="502" gradientUnits="userSpaceOnUse">
<stop stop-color="#19AA52"/>
<stop offset="1" stop-color="#19AA52" stop-opacity="0"/>
</linearGradient>
<linearGradient id="paint20_linear_1488_11122" x1="-2.18977e-07" y1="21" x2="114" y2="21" gradientUnits="userSpaceOnUse">
<stop stop-color="#19AA52"/>
<stop offset="1" stop-color="#19AA52" stop-opacity="0"/>
</linearGradient>
<linearGradient id="paint21_linear_1488_11122" x1="186" y1="548" x2="792" y2="548" gradientUnits="userSpaceOnUse">
<stop stop-color="#19AA52"/>
<stop offset="1" stop-color="#19AA52" stop-opacity="0"/>
</linearGradient>
<linearGradient id="paint22_linear_1488_11122" x1="-2.18977e-07" y1="21" x2="114" y2="21" gradientUnits="userSpaceOnUse">
<stop stop-color="#19AA52"/>
<stop offset="1" stop-color="#19AA52" stop-opacity="0"/>
</linearGradient>
<linearGradient id="paint23_linear_1488_11122" x1="186" y1="594" x2="792" y2="594" gradientUnits="userSpaceOnUse">
<stop stop-color="#19AA52"/>
<stop offset="1" stop-color="#19AA52" stop-opacity="0"/>
</linearGradient>
<linearGradient id="paint24_linear_1488_11122" x1="-2.18977e-07" y1="21" x2="114" y2="21" gradientUnits="userSpaceOnUse">
<stop stop-color="#19AA52"/>
<stop offset="1" stop-color="#19AA52" stop-opacity="0"/>
</linearGradient>
<linearGradient id="paint25_linear_1488_11122" x1="186" y1="644" x2="792" y2="644" gradientUnits="userSpaceOnUse">
<stop stop-color="#19AA52"/>
<stop offset="1" stop-color="#19AA52" stop-opacity="0"/>
</linearGradient>
<clipPath id="clip0_1488_11122">
<rect y="51" width="114" height="42" rx="2" fill="white"/>
</clipPath>
<clipPath id="clip1_1488_11122">
<rect y="101" width="114" height="42" rx="2" fill="white"/>
</clipPath>
<clipPath id="clip2_1488_11122">
<rect y="147" width="114" height="42" rx="2" fill="white"/>
</clipPath>
<clipPath id="clip3_1488_11122">
<rect y="197" width="114" height="42" rx="2" fill="white"/>
</clipPath>
<clipPath id="clip4_1488_11122">
<rect y="243" width="114" height="42" rx="2" fill="white"/>
</clipPath>
<clipPath id="clip5_1488_11122">
<rect y="289" width="114" height="42" rx="2" fill="white"/>
</clipPath>
<clipPath id="clip6_1488_11122">
<rect y="339" width="114" height="42" rx="2" fill="white"/>
</clipPath>
<clipPath id="clip7_1488_11122">
<rect y="385" width="114" height="42" rx="2" fill="white"/>
</clipPath>
<clipPath id="clip8_1488_11122">
<rect y="431" width="114" height="42" rx="2" fill="white"/>
</clipPath>
<clipPath id="clip9_1488_11122">
<rect y="481" width="114" height="42" rx="2" fill="white"/>
</clipPath>
<clipPath id="clip10_1488_11122">
<rect y="527" width="114" height="42" rx="2" fill="white"/>
</clipPath>
<clipPath id="clip11_1488_11122">
<rect y="573" width="114" height="42" rx="2" fill="white"/>
</clipPath>
<clipPath id="clip12_1488_11122">
<rect y="623" width="114" height="42" rx="2" fill="white"/>
</clipPath>
</defs>
</svg>
